<svg width="71" height="68" viewBox="0 0 71 68" fill="none" xmlns="http://www.w3.org/2000/svg">
<g clip-path="url(#clip0_73_2)">
<rect width="71" height="68" rx="34" fill="black"/>
<path d="M46.1875 29.1406H43.9219V26.875C43.9219 26.7891 43.8516 26.7188 43.7656 26.7188H42.8281C42.7422 26.7188 42.6719 26.7891 42.6719 26.875V29.1406H40.4062C40.3203 29.1406 40.25 29.2109 40.25 29.2969V30.2344C40.25 30.3203 40.3203 30.3906 40.4062 30.3906H42.6719V32.6562C42.6719 32.7422 42.7422 32.8125 42.8281 32.8125H43.7656C43.8516 32.8125 43.9219 32.7422 43.9219 32.6562V30.3906H46.1875C46.2734 30.3906 46.3438 30.3203 46.3438 30.2344V29.2969C46.3438 29.2109 46.2734 29.1406 46.1875 29.1406Z" fill="#D97502"/>
<path d="M56.8125 20.9043L54.3125 22.3438V19.375C54.3125 18.6855 53.752 18.125 53.0625 18.125H41.5C40.8105 18.125 40.25 18.6855 40.25 19.375V26.25H41.6562V19.5312H52.9062V30.4688H47.75V31.875H53.0625C53.752 31.875 54.3125 31.3145 54.3125 30.625V27.6562L56.8125 29.0957C57.2285 29.3359 57.75 29.0352 57.75 28.5566V21.4453C57.75 20.9648 57.2285 20.6641 56.8125 20.9043ZM56.3438 27.207L54.3125 26.0391V23.9629L56.3438 22.793V27.207Z" fill="#D97502"/>
<path d="M45.25 22.0312C45.3359 22.0312 45.4062 21.9609 45.4062 21.875V20.9375C45.4062 20.8516 45.3359 20.7812 45.25 20.7812H43.0625C42.9766 20.7812 42.9062 20.8516 42.9062 20.9375V21.875C42.9062 21.9609 42.9766 22.0312 43.0625 22.0312H45.25Z" fill="#D97502"/>
<g filter="url(#filter0_d_73_2)">
<path d="M38.78 51.56H30.5V89H15.11V51.56H9.53V38.78H15.11V37.34C15.11 31.16 16.88 26.48 20.42 23.3C23.96 20.06 29.15 18.44 35.99 18.44C37.13 18.44 37.97 18.47 38.51 18.53V31.58C35.57 31.4 33.5 31.82 32.3 32.84C31.1 33.86 30.5 35.69 30.5 38.33V38.78H38.78V51.56Z" fill="#D97502"/>
</g>
</g>
<defs>
<filter id="filter0_d_73_2" x="9.53" y="18.44" width="29.75" height="71.06" filterUnits="userSpaceOnUse" color-interpolation-filters="sRGB">
<feFlood flood-opacity="0" result="BackgroundImageFix"/>
<feColorMatrix in="SourceAlpha" type="matrix" values="0 0 0 0 0 0 0 0 0 0 0 0 0 0 0 0 0 0 127 0" result="hardAlpha"/>
<feOffset dx="0.5" dy="0.5"/>
<feComposite in2="hardAlpha" operator="out"/>
<feColorMatrix type="matrix" values="0 0 0 0 0 0 0 0 0 0 0 0 0 0 0 0 0 0 0.25 0"/>
<feBlend mode="normal" in2="BackgroundImageFix" result="effect1_dropShadow_73_2"/>
<feBlend mode="normal" in="SourceGraphic" in2="effect1_dropShadow_73_2" result="shape"/>
</filter>
<clipPath id="clip0_73_2">
<rect width="71" height="68" rx="34" fill="white"/>
</clipPath>
</defs>
</svg>
